<?xml version="1.0" encoding="utf-8"?><svg viewBox="0 0 53.75 52.25" xmlns="http://www.w3.org/2000/svg" xmlns:xlink="http://www.w3.org/1999/xlink"><style>:root>svg{display:none}:root>svg:target{display:block}</style><svg viewBox="0 0 22 9" id="arrow" xmlns="http://www.w3.org/2000/svg"><defs><style>.acls-1{fill:#fff;fill-rule:evenodd}</style></defs><path class="acls-1" d="M.3 5.472h16.948l-.1 2.857a.292.292 0 000 .41l.172.172a.28.28 0 00.2.086.285.285 0 00.2-.084l4.193-4.211A.292.292 0 0022 4.5a.283.283 0 00-.084-.2L17.723.087a.289.289 0 00-.407 0l-.172.173a.287.287 0 00-.084.2.278.278 0 00.084.2l.113 2.865H.292A.3.3 0 000 3.82v1.37a.292.292 0 00.3.282z"/></svg><svg viewBox="0 0 22 9" id="arrow-2" xmlns="http://www.w3.org/2000/svg"><defs><style>.bcls-1{fill:#436372;fill-rule:evenodd}</style></defs><path class="bcls-1" d="M.3 5.47h16.948l-.1 2.86a.279.279 0 00-.084.2.3.3 0 00.084.21l.172.17a.276.276 0 00.408 0L21.92 4.7a.283.283 0 00.084-.2.307.307 0 00-.084-.21L17.728.08a.3.3 0 00-.408 0l-.172.17a.3.3 0 00-.084.21.3.3 0 00.084.2l.113 2.86H.292a.3.3 0 00-.292.3v1.37a.288.288 0 00.3.28z"/></svg><svg viewBox="0 0 64 64" id="calendar" xmlns="http://www.w3.org/2000/svg"><path d="M57 8h-5V6a4 4 0 00-8 0v2h-8V6a4 4 0 00-8 0v2h-8V6a4 4 0 00-8 0v2H7a5 5 0 00-5 5v40a5 5 0 005 5h28a1 1 0 000-2H7a3.009 3.009 0 01-3-3V22h56v17a1 1 0 002 0V13a5 5 0 00-5-5zM46 6a2 2 0 014 0v6a2 2 0 01-4 0zM30 6a2 2 0 014 0v6a2 2 0 01-4 0zM14 6a2 2 0 014 0v6a2 2 0 01-4 0zm46 14H4v-7a3.009 3.009 0 013-3h5v2a4 4 0 008 0v-2h8v2a4 4 0 008 0v-2h8v2a4 4 0 008 0v-2h5a3.009 3.009 0 013 3z"/><path d="M30 29a2 2 0 00-2-2h-4a2 2 0 00-2 2v3a2 2 0 002 2h4a2 2 0 002-2zm-6 3v-3h4v3zM18 29a2 2 0 00-2-2h-4a2 2 0 00-2 2v3a2 2 0 002 2h4a2 2 0 002-2zm-6 3v-3h4v3zM52 34a2 2 0 002-2v-3a2 2 0 00-2-2h-4a2 2 0 00-2 2v3a2 2 0 002 2zm-4-5h4v3h-4zM30 38a2 2 0 00-2-2h-4a2 2 0 00-2 2v3a2 2 0 002 2h4a2 2 0 002-2zm-6 3v-3h4v3zM18 38a2 2 0 00-2-2h-4a2 2 0 00-2 2v3a2 2 0 002 2h4a2 2 0 002-2zm-6 3v-3h4v3zM28 45h-4a2 2 0 00-2 2v3a2 2 0 002 2h4a2 2 0 002-2v-3a2 2 0 00-2-2zm-4 5v-3h4v3zM36 34h4a2 2 0 002-2v-3a2 2 0 00-2-2h-4a2 2 0 00-2 2v3a2 2 0 002 2zm0-5h4v3h-4zM34 41a2 2 0 002 2 1 1 0 000-2v-3h4a1 1 0 000-2h-4a2 2 0 00-2 2zM16 45h-4a2 2 0 00-2 2v3a2 2 0 002 2h4a2 2 0 002-2v-3a2 2 0 00-2-2zm-4 5v-3h4v3z"/><path d="M49 36a13 13 0 1013 13 13.015 13.015 0 00-13-13zm0 24a11 11 0 1111-11 11.013 11.013 0 01-11 11z"/><path d="M54.778 44.808L47 52.586l-3.535-3.536a1 1 0 00-1.414 1.414l4.242 4.243a1 1 0 001.414 0l8.485-8.485a1 1 0 00-1.414-1.414z"/></svg><svg viewBox="0 0 53.75 36.44" id="delivery" xmlns="http://www.w3.org/2000/svg"><defs><style>.dcls-1{fill:#a3bbc8;fill-rule:evenodd}</style></defs><path id="ddelivery-truck" class="dcls-1" d="M847.75 1037.41a9.8 9.8 0 11-9.813 9.79 9.8 9.8 0 019.813-9.79zm-34.934-12.08h-6.126a.79.79 0 000 1.58h6.126a.79.79 0 000-1.58zm.524 11.01h-5.6a.785.785 0 100 1.57h5.6a.785.785 0 100-1.57zm-2.094-4.72H804.6a.79.79 0 000 1.58h6.65a.79.79 0 00-.004-1.58zm0 11.01h-.646a.785.785 0 100 1.57h.644a.785.785 0 10.002-1.57zm-3.263 0H804.6a.785.785 0 100 1.57h3.387a.785.785 0 10-.004-1.57zm36.86-19.86h-6.657v-1.42a.784.784 0 00-.786-.78h-12.175a.785.785 0 100 1.57h11.39v17.22a.786.786 0 101.571 0v-15.02h6.657a6.519 6.519 0 016.509 6.52v13.29h-2a4.974 4.974 0 00-9.824 0h-1.345v-1.12a.786.786 0 10-1.571 0v1.12h-8.336a4.974 4.974 0 00-9.823 0h-1.634v-22.01h5.261a.785.785 0 100-1.57h-6.046a.783.783 0 00-.785.78v23.59a.791.791 0 00.785.79h2.419a4.974 4.974 0 009.823 0h11.252a4.974 4.974 0 009.824 0h2.782a.791.791 0 00.785-.79v-14.08a8.094 8.094 0 00-8.076-8.09zm-21.475 25.58a3.41 3.41 0 113.4-3.41 3.411 3.411 0 01-3.4 3.41zm21.075 0a3.411 3.411 0 01-3.4-3.41 3.4 3.4 0 113.4 3.41zm.4-22.44h-4.3a.791.791 0 00-.785.79v7.39a.791.791 0 00.785.79H849a.792.792 0 00.786-.79v-3.23a4.949 4.949 0 00-4.943-4.95zm3.367 7.39h-6.882v-5.81h3.515a3.371 3.371 0 013.367 3.37v2.44zm-24.842 9.61a2.03 2.03 0 102.024 2.03 2.029 2.029 0 00-2.024-2.03zm0 2.49a.46.46 0 01-.455-.46.455.455 0 01.909 0 .46.46 0 01-.454.46zm21.075-2.49a2.03 2.03 0 102.025 2.03 2.03 2.03 0 00-2.025-2.03zm0 2.49a.46.46 0 01-.454-.46.454.454 0 01.908 0 .46.46 0 01-.454.46zm4.552-8.37a.783.783 0 00-.785.78v1.99a.786.786 0 101.571 0v-1.99a.784.784 0 00-.781-.78z" transform="translate(-803.812 -1020.56)"/></svg><svg viewBox="0 0 36.41 37.719" id="doc" xmlns="http://www.w3.org/2000/svg"><defs><style>.ecls-1{fill:#a3bbc8;fill-rule:evenodd}</style></defs><path class="ecls-1" d="M1.975 37.71A1.984 1.984 0 010 35.719V8.441a.915.915 0 01.264-.643L7.74.256a.9.9 0 01.638-.267h19.09a1.98 1.98 0 011.97 1.991v2.87a.9.9 0 11-1.8 0V1.98a.172.172 0 00-.17-.17H9.278v5.552a1.98 1.98 0 01-1.97 1.99h-5.5v26.367a.17.17 0 00.168.17h25.5a.173.173 0 00.17-.17v-13.9a.9.9 0 111.8 0v13.9a1.98 1.98 0 01-1.97 1.991h-25.5zM3.083 7.532H7.31a.17.17 0 00.168-.17V3.097zM7.059 31.24a.91.91 0 010-1.82H11l1.39-5.066a.9.9 0 01.23-.4l.02-.015H7.059a.91.91 0 010-1.82h7.381l5.43-5.48H7.059a.911.911 0 010-1.821H21.68l8.43-8.5a3.038 3.038 0 014.32 0l1.06 1.071a3.1 3.1 0 010 4.356L18 29.382a.889.889 0 01-.39.234l-5.7 1.6c-.03.007-.23.029-.23.029H7.059zm5.921-2.218l2.65-.744-1.91-1.933zm1.56-4.424l2.83 2.853L31.8 12.889l-2.83-2.852zm16.84-17L30.25 8.75l2.83 2.853 1.13-1.147a1.264 1.264 0 000-1.782l-1.06-1.071a1.225 1.225 0 00-.88-.369 1.265 1.265 0 00-.89.368z"/></svg><svg viewBox="0 0 43.12 39.094" id="megaphone" xmlns="http://www.w3.org/2000/svg"><defs><style>.fcls-1{fill:#a3bbc8;fill-rule:evenodd}</style></defs><path class="fcls-1" d="M37.87 9.304V2.178A2.174 2.174 0 0036.82.291 2.076 2.076 0 0034.69.27a48.669 48.669 0 01-20.7 6.383l-6.68.034a3.286 3.286 0 00-3.23 2.949H2.72A2.749 2.749 0 00.01 12.41v6.1a2.748 2.748 0 002.71 2.774h1.36a3.32 3.32 0 001.91 2.664l4.85 13.723a2.118 2.118 0 001.98 1.428h4.86a2.1 2.1 0 001.73-.925 2.221 2.221 0 00.25-1.986l-4.15-11.785a48.668 48.668 0 0119.18 6.244 2.08 2.08 0 002.13-.021 2.174 2.174 0 001.05-1.887v-7.126a6.228 6.228 0 000-12.309zM4.05 19.14H2.72a.622.622 0 01-.62-.634v-6.1a.623.623 0 01.62-.634h1.33v7.364zm2.78 2.844a1.2 1.2 0 01-.69-1.1V10.03a1.185 1.185 0 011.17-1.2h5.67v13.262H7.23a1.027 1.027 0 01-.4-.108zm10.88 14.93a.037.037 0 01-.01.028c-.01.013-.01.013-.02.013h-4.86a.049.049 0 01-.03-.018L8.31 24.229h4.92zm18.08-8.179a.037.037 0 01-.03.041.04.04 0 01-.05 0 50.66 50.66 0 00-20.65-6.57v-13.5a50.692 50.692 0 0020.65-6.571.04.04 0 01.05 0 .037.037 0 01.03.041v26.557zm2.08-9.292v-7.974a4.089 4.089 0 010 7.974z"/></svg><svg viewBox="0 0 41.78 40.406" id="one" xmlns="http://www.w3.org/2000/svg"><defs><style>.gcls-1{fill:#a3bbc8;fill-rule:evenodd}</style></defs><path class="gcls-1" d="M12.56 31.95a8.516 8.516 0 01.83-3.671L.17 7.833a.919.919 0 01.11-1.139L6.6.276A.9.9 0 017.23.01h27.35a.882.882 0 01.63.266l6.32 6.418a.906.906 0 01.11 1.139L28.42 28.28a8.508 8.508 0 01.83 3.67 8.346 8.346 0 11-16.69 0zm1.79 0a6.556 6.556 0 106.56-6.661 6.617 6.617 0 00-6.56 6.661zm8.55-8.23a8.324 8.324 0 014.47 2.884L39.24 8.242H32.9zm-8.46 2.883a8.354 8.354 0 014.48-2.883L8.91 8.242H2.57zm6.45-3.127h.03l9.85-15.234H11.04zM3.07 6.429h35.67l-4.53-4.606H7.6zm17.25 28.919v-4.9h-.53a.907.907 0 010-1.814h1.42a.9.9 0 01.89.908v5.808a.89.89 0 11-1.78-.007z"/></svg><svg viewBox="0 0 53.56 52.25" id="pay" xmlns="http://www.w3.org/2000/svg"><defs><style>.hcls-1{fill:#a3bbc8;fill-rule:evenodd}</style></defs><path id="hcredit-card" class="hcls-1" d="M1442 1044.06a9.8 9.8 0 11-9.81 9.8 9.805 9.805 0 019.81-9.8zm2.43-1.74a.83.83 0 00-.84.83v8.27a2.164 2.164 0 01-2.16 2.16h-39.34a2.164 2.164 0 01-2.16-2.16v-11.92h27.29a.84.84 0 100-1.68h-27.29v-5.47h9.87a.828.828 0 00.83-.83.837.837 0 00-.83-.84h-9.87v-2.88a2.166 2.166 0 012.16-2.17h25.13a.835.835 0 100-1.67h-25.13a3.839 3.839 0 00-3.83 3.84v23.62a3.837 3.837 0 003.83 3.83h39.34a3.837 3.837 0 003.83-3.83v-8.27a.828.828 0 00-.83-.83zm-17.21-11.64H1413a.837.837 0 00-.83.84.828.828 0 00.83.83h14.22a.837.837 0 00.84-.83.845.845 0 00-.84-.84zm-9.24 11.56h-14.27a.835.835 0 000 1.67h14.27a.835.835 0 100-1.67zm-6.08 3.99h-8.19a.835.835 0 000 1.67h8.19a.835.835 0 000-1.67zm34.63-13.61a.832.832 0 00.84-.84v-4.77a3.038 3.038 0 00-2.39-2.97v-6.02a6.6 6.6 0 10-13.19 0v6.02a3.053 3.053 0 00-2.4 2.97v10.75a3.045 3.045 0 003.04 3.04h11.9a3.039 3.039 0 003.04-3.04v-3.19a.835.835 0 00-1.67 0v3.19a1.379 1.379 0 01-1.37 1.37h-11.9a1.379 1.379 0 01-1.37-1.37v-10.75a1.379 1.379 0 011.37-1.37h11.9a1.379 1.379 0 011.37 1.37v4.77a.83.83 0 00.83.84zm-3.23-8.65h-9.84v-5.95a4.92 4.92 0 119.84 0v5.95zm-4.92 4.32a3.092 3.092 0 00-.83 6.07v2.04a.83.83 0 00.83.84.839.839 0 00.84-.84v-2.04a3.094 3.094 0 00-.84-6.07zm0 4.52a1.425 1.425 0 111.42-1.43 1.428 1.428 0 01-1.42 1.43z" transform="translate(-1398.25 -1011.41)"/></svg><svg viewBox="0 0 6.1 10.97" id="promo-arrow" xmlns="http://www.w3.org/2000/svg"><defs><style>.icls-1{fill:#262626;fill-rule:evenodd}</style></defs><path class="icls-1" d="M.55 10.97a.53.53 0 01-.41-.19.6.6 0 01-.15-.4.631.631 0 01.17-.43l4.55-4.47L.16 1A.607.607 0 01-.01.58.629.629 0 01.14.17a.559.559 0 01.8-.02l4.98 4.9.01.01a.657.657 0 01.12.17.7.7 0 01.05.25.742.742 0 01-.05.25.61.61 0 01-.12.16c0 .01-.01.01-.01.02l-4.98 4.9a.589.589 0 01-.39.16z"/></svg><svg viewBox="0 0 50.875 52.13" id="support" xmlns="http://www.w3.org/2000/svg"><defs><style>.jcls-1{fill:#a3bbc8;fill-rule:evenodd}</style></defs><path class="jcls-1" d="M41.078 32.5a9.815 9.815 0 11-9.8 9.82 9.811 9.811 0 019.8-9.82zm4.328-20.92a.937.937 0 00-1.592.99 22.684 22.684 0 01-32.86 30.14.938.938 0 00-1.125 1.5 24.559 24.559 0 0035.577-32.63zm-23.03 21.94h-7.55l4.743-4.75a12.68 12.68 0 003.744-9.03 5.844 5.844 0 10-11.688 0 .938.938 0 001.875 0 3.969 3.969 0 117.938 0 10.836 10.836 0 01-3.195 7.71l-6.344 6.34a.949.949 0 00-.2 1.03.93.93 0 00.866.57h9.813a.935.935 0 10-.002-1.87zm15.039-6.44h-2.6v-1.52a.938.938 0 00-1.875 0v1.52h-5.286l5.286-8.85v4.21a.938.938 0 101.875 0v-7.62a.957.957 0 00-.456-.8.94.94 0 00-1.286.33l-7.875 13.19a.933.933 0 00-.011.94.951.951 0 00.816.48h6.938v5.5a.938.938 0 001.875 0v-5.5h2.6a.94.94 0 00-.001-1.88zm5.33-22.63a.938.938 0 10-1.875.04l.042 1.75A24.556 24.556 0 007.363 42.09a.93.93 0 00.656.27.92.92 0 00.669-.28.942.942 0 00-.013-1.33A22.679 22.679 0 0124.557 1.88a22.745 22.745 0 0115.107 5.77l-1.843.04a.935.935 0 00.022 1.87h.023l4.06-.09a.934.934 0 00.915-.96z"/></svg><svg viewBox="0 0 19.738 19.738" id="user" xmlns="http://www.w3.org/2000/svg"><g fill="#010002"><path d="M18.18 19.738h-2c0-3.374-2.83-6.118-6.311-6.118s-6.31 2.745-6.31 6.118h-2c0-4.478 3.729-8.118 8.311-8.118 4.581 0 8.31 3.64 8.31 8.118zM9.87 10.97a5.492 5.492 0 01-5.484-5.485A5.49 5.49 0 019.87 0c3.025 0 5.486 2.46 5.486 5.485S12.895 10.97 9.87 10.97zm0-8.97C7.948 2 6.385 3.563 6.385 5.485S7.948 8.97 9.87 8.97c1.923 0 3.486-1.563 3.486-3.485S11.791 2 9.87 2z"/></g></svg></svg>