<?xml version="1.0" encoding="utf-8"?><svg viewBox="0 0 512 512" xmlns="http://www.w3.org/2000/svg" xmlns:xlink="http://www.w3.org/1999/xlink"><style>:root>svg{display:none}:root>svg:target{display:block}</style><svg viewBox="0 0 22 9" id="arrow" xmlns="http://www.w3.org/2000/svg"><defs><style>.acls-1{fill:#fff;fill-rule:evenodd}</style></defs><path class="acls-1" d="M.3 5.472h16.948l-.1 2.857a.292.292 0 000 .41l.172.172a.28.28 0 00.2.086.285.285 0 00.2-.084l4.193-4.211A.292.292 0 0022 4.5a.283.283 0 00-.084-.2L17.723.087a.289.289 0 00-.407 0l-.172.173a.287.287 0 00-.084.2.278.278 0 00.084.2l.113 2.865H.292A.3.3 0 000 3.82v1.37a.292.292 0 00.3.282z"/></svg><svg viewBox="0 0 22 9" id="arrow-next" xmlns="http://www.w3.org/2000/svg"><defs><style>.bcls-1{fill:#a3bbc8;fill-rule:evenodd}</style></defs><path class="bcls-1" d="M.3 5.47h16.94l-.1 2.86a.3.3 0 00-.08.2.323.323 0 00.08.21l.18.17a.267.267 0 00.4 0l4.2-4.21a.3.3 0 00.08-.2.323.323 0 00-.08-.21L17.72.08a.29.29 0 00-.4 0l-.18.17a.323.323 0 00-.08.21.318.318 0 00.08.2l.12 2.86H.29a.3.3 0 00-.29.3v1.37a.291.291 0 00.3.28z"/></svg><svg viewBox="0 0 22 9" id="arrow-prev" xmlns="http://www.w3.org/2000/svg"><defs><style>.ccls-1{fill:#a3bbc8;fill-rule:evenodd}</style></defs><path class="ccls-1" d="M21.7 3.53H4.76l.1-2.86a.3.3 0 00.08-.2.323.323 0 00-.08-.21L4.68.09a.267.267 0 00-.4 0L.08 4.3a.3.3 0 00-.08.2.323.323 0 00.08.21l4.2 4.21a.29.29 0 00.4 0l.18-.17a.323.323 0 00.08-.21.3.3 0 00-.08-.2l-.12-2.86h16.97a.3.3 0 00.29-.3V3.81a.291.291 0 00-.3-.28z"/></svg><svg viewBox="0 0 64 64" id="calendar" xmlns="http://www.w3.org/2000/svg"><path d="M57 8h-5V6a4 4 0 00-8 0v2h-8V6a4 4 0 00-8 0v2h-8V6a4 4 0 00-8 0v2H7a5 5 0 00-5 5v40a5 5 0 005 5h28a1 1 0 000-2H7a3.009 3.009 0 01-3-3V22h56v17a1 1 0 002 0V13a5 5 0 00-5-5zM46 6a2 2 0 014 0v6a2 2 0 01-4 0zM30 6a2 2 0 014 0v6a2 2 0 01-4 0zM14 6a2 2 0 014 0v6a2 2 0 01-4 0zm46 14H4v-7a3.009 3.009 0 013-3h5v2a4 4 0 008 0v-2h8v2a4 4 0 008 0v-2h8v2a4 4 0 008 0v-2h5a3.009 3.009 0 013 3z"/><path d="M30 29a2 2 0 00-2-2h-4a2 2 0 00-2 2v3a2 2 0 002 2h4a2 2 0 002-2zm-6 3v-3h4v3zM18 29a2 2 0 00-2-2h-4a2 2 0 00-2 2v3a2 2 0 002 2h4a2 2 0 002-2zm-6 3v-3h4v3zM52 34a2 2 0 002-2v-3a2 2 0 00-2-2h-4a2 2 0 00-2 2v3a2 2 0 002 2zm-4-5h4v3h-4zM30 38a2 2 0 00-2-2h-4a2 2 0 00-2 2v3a2 2 0 002 2h4a2 2 0 002-2zm-6 3v-3h4v3zM18 38a2 2 0 00-2-2h-4a2 2 0 00-2 2v3a2 2 0 002 2h4a2 2 0 002-2zm-6 3v-3h4v3zM28 45h-4a2 2 0 00-2 2v3a2 2 0 002 2h4a2 2 0 002-2v-3a2 2 0 00-2-2zm-4 5v-3h4v3zM36 34h4a2 2 0 002-2v-3a2 2 0 00-2-2h-4a2 2 0 00-2 2v3a2 2 0 002 2zm0-5h4v3h-4zM34 41a2 2 0 002 2 1 1 0 000-2v-3h4a1 1 0 000-2h-4a2 2 0 00-2 2zM16 45h-4a2 2 0 00-2 2v3a2 2 0 002 2h4a2 2 0 002-2v-3a2 2 0 00-2-2zm-4 5v-3h4v3z"/><path d="M49 36a13 13 0 1013 13 13.015 13.015 0 00-13-13zm0 24a11 11 0 1111-11 11.013 11.013 0 01-11 11z"/><path d="M54.778 44.808L47 52.586l-3.535-3.536a1 1 0 00-1.414 1.414l4.242 4.243a1 1 0 001.414 0l8.485-8.485a1 1 0 00-1.414-1.414z"/></svg><svg viewBox="0 0 64 40" id="car" xmlns="http://www.w3.org/2000/svg"><defs><style>.ecls-1{fill:#243f4d;fill-rule:evenodd}</style></defs><path class="ecls-1" d="M59.52 16.96l-1.658-6.55a1 1 0 00.793-.97V8.38a4.192 4.192 0 00-4.208-4.16H46.9V2.05A2.063 2.063 0 0044.829 0H6.346a2.063 2.063 0 00-2.071 2.05V20a1 1 0 002 0V2.05a.068.068 0 01.066-.07h38.481a.068.068 0 01.066.07V20a1 1 0 002 0v-1.12h11.826a3.27 3.27 0 013.114 2.24h-3.116a1 1 0 00-1 .99v2.11a3.131 3.131 0 003.14 3.11H62v4.35h-2.621a6.372 6.372 0 00-12 0H46.9v-7.46a1 1 0 00-2 0v7.46H24.1a6.372 6.372 0 00-12 0H6.339a.066.066 0 01-.066-.06v-2.18h4.342a.99.99 0 100-1.98H1a.99.99 0 100 1.98h3.274v2.18a2.061 2.061 0 002.071 2.04h5.413v.07a6.347 6.347 0 0012.693 0v-.07h22.584v.07a6.347 6.347 0 0012.693 0v-.07H63a.994.994 0 001-.99V22.11a5.235 5.235 0 00-4.48-5.15zM46.9 6.2h7.549a2.2 2.2 0 012.2 2.18v.07H46.9V6.2zm0 10.7v-6.47h8.9l1.637 6.47H46.9zM18.1 38.02a4.29 4.29 0 114.343-4.29 4.325 4.325 0 01-4.343 4.29zm35.274 0a4.29 4.29 0 114.342-4.29 4.325 4.325 0 01-4.338 4.29zM62 25.35h-1.14a1.137 1.137 0 01-1.136-1.13V23.1H62v2.25zm-43.892 6.33a2.05 2.05 0 102.071 2.05 2.063 2.063 0 00-2.079-2.05zm35.274 0a2.05 2.05 0 102.071 2.05 2.063 2.063 0 00-2.075-2.05zm-11.758-4.22H26.655a.99.99 0 100 1.98H41.62a.99.99 0 100-1.98zm-25.653-4.23H3.14a.99.99 0 100 1.98h12.827a.99.99 0 100-1.98zM34.85 9.79a1.023 1.023 0 00-1.417 0l-8.911 8.81-4.636-4.58a1 1 0 00-1.417 0 .98.98 0 000 1.4l5.344 5.28a1.01 1.01 0 001.417 0l9.62-9.51a.98.98 0 00-.004-1.4z"/></svg><svg viewBox="0 0 512 512" id="delivery" xmlns="http://www.w3.org/2000/svg"><g fill="#ffc107"><path d="M128 160c0-8.832-7.168-16-16-16H16c-8.832 0-16 7.168-16 16s7.168 16 16 16h96c8.832 0 16-7.168 16-16zM112 208H48c-8.832 0-16 7.168-16 16s7.168 16 16 16h64c8.832 0 16-7.168 16-16s-7.168-16-16-16zM112 272H80c-8.832 0-16 7.168-16 16s7.168 16 16 16h32c8.832 0 16-7.168 16-16s-7.168-16-16-16z"/></g><path d="M509.728 263.776l-48-80A15.964 15.964 0 00448 176H336c-8.832 0-16 7.168-16 16v160c0 8.832 7.168 16 16 16h160c8.832 0 16-7.168 16-16v-80c0-2.912-.768-5.76-2.272-8.224z" fill="#f44336"/><path fill="#fafafa" d="M384 208h54.944l38.4 64H384z"/><path d="M336 112H112c-8.832 0-16 7.168-16 16v224c0 8.832 7.168 16 16 16h240V128c0-8.832-7.168-16-16-16z" fill="#ffc107"/><circle cx="432" cy="352" r="32" fill="#fafafa"/><path d="M432 400c-26.464 0-48-21.536-48-48s21.536-48 48-48 48 21.536 48 48-21.536 48-48 48zm0-64c-8.8 0-16 7.2-16 16s7.2 16 16 16 16-7.2 16-16-7.2-16-16-16z" fill="#455a64"/><path d="M352 368H112c-8.832 0-16-7.168-16-16v-48h256v64z" fill="#f44336"/><circle cx="208" cy="352" r="32" fill="#fafafa"/><path d="M208 400c-26.464 0-48-21.536-48-48s21.536-48 48-48 48 21.536 48 48-21.536 48-48 48zm0-64c-8.832 0-16 7.2-16 16s7.168 16 16 16 16-7.2 16-16-7.168-16-16-16z" fill="#455a64"/></svg><svg viewBox="0 0 36.41 37.719" id="doc" xmlns="http://www.w3.org/2000/svg"><defs><style>.gcls-1{fill:#a3bbc8;fill-rule:evenodd}</style></defs><path class="gcls-1" d="M1.975 37.71A1.984 1.984 0 010 35.719V8.441a.915.915 0 01.264-.643L7.74.256a.9.9 0 01.638-.267h19.09a1.98 1.98 0 011.97 1.991v2.87a.9.9 0 11-1.8 0V1.98a.172.172 0 00-.17-.17H9.278v5.552a1.98 1.98 0 01-1.97 1.99h-5.5v26.367a.17.17 0 00.168.17h25.5a.173.173 0 00.17-.17v-13.9a.9.9 0 111.8 0v13.9a1.98 1.98 0 01-1.97 1.991h-25.5zM3.083 7.532H7.31a.17.17 0 00.168-.17V3.097zM7.059 31.24a.91.91 0 010-1.82H11l1.39-5.066a.9.9 0 01.23-.4l.02-.015H7.059a.91.91 0 010-1.82h7.381l5.43-5.48H7.059a.911.911 0 010-1.821H21.68l8.43-8.5a3.038 3.038 0 014.32 0l1.06 1.071a3.1 3.1 0 010 4.356L18 29.382a.889.889 0 01-.39.234l-5.7 1.6c-.03.007-.23.029-.23.029H7.059zm5.921-2.218l2.65-.744-1.91-1.933zm1.56-4.424l2.83 2.853L31.8 12.889l-2.83-2.852zm16.84-17L30.25 8.75l2.83 2.853 1.13-1.147a1.264 1.264 0 000-1.782l-1.06-1.071a1.225 1.225 0 00-.88-.369 1.265 1.265 0 00-.89.368z"/></svg><svg viewBox="0 0 22.66 14.38" id="g+" xmlns="http://www.w3.org/2000/svg"><defs><style>.hcls-1{fill:#888;fill-rule:evenodd}</style></defs><path id="hUnion_6" data-name="Union 6" class="hcls-1" d="M1052.75 1960.35a7.121 7.121 0 01-6.59-5.65 6.6 6.6 0 01-.14-1.93 7.277 7.277 0 015.49-6.56 5.282 5.282 0 011.18-.19c.23-.01.46-.02.69-.02a6.786 6.786 0 013.4.93 9.386 9.386 0 011.27.93c-.72.71-1.41 1.4-2.11 2.09a3.914 3.914 0 00-2.1-1.02 4.259 4.259 0 00-.61-.04 4.307 4.307 0 00-4.14 3.35 3.817 3.817 0 00-.1 1.3 4.3 4.3 0 002.94 3.74 4.35 4.35 0 001.25.19c.1 0 .2-.01.3-.01a4.2 4.2 0 002.09-.67 3.314 3.314 0 001.43-2.17h-3.85c0-.09.02-1.89.02-2.76l.01-.12h6.76a7.773 7.773 0 01-1.28 6.05 6.273 6.273 0 01-3.55 2.32 7.539 7.539 0 01-1.94.25c-.14 0-.28 0-.42-.01zm13.33-4.05h-1.89v-.07l.02-2.43h-2.51v-.08l.02-1.82v-.07h2.5l.02-2.43v-.07h1.96v.07l-.02 2.43h2.51v.07l-.01 1.82v.08h-2.51l-.02 2.43v.07h-.07z" transform="translate(-1046.03 -1946)"/></svg><svg viewBox="0 0 17.19 17.19" id="instagram" xmlns="http://www.w3.org/2000/svg"><defs><style>.icls-1{fill:#888;fill-rule:evenodd}</style></defs><path id="iUnion_5" data-name="Union 5" class="icls-1" d="M1004.59 1961.94a4.322 4.322 0 01-3.43-3.75c-.23-1.45-.25-8.19.17-9.65a4.387 4.387 0 013.75-3.35 34.173 34.173 0 014.31-.19c1.6 0 3.22.04 4.19.1a4.724 4.724 0 013.14 1.28 4.517 4.517 0 011.38 2.94c.12 1.35.21 7.74-.19 9.24a4.411 4.411 0 01-3.8 3.44 42.333 42.333 0 01-4.74.19 29.143 29.143 0 01-4.78-.25zm.92-15.26a2.958 2.958 0 00-2.75 2.59 57.587 57.587 0 00-.06 8.69 2.8 2.8 0 002.12 2.43 27.569 27.569 0 004.63.25c1.8 0 3.57-.06 4.24-.13a2.941 2.941 0 002.75-2.6 61.315 61.315 0 00.11-8.45 2.9 2.9 0 00-2.58-2.74 40.212 40.212 0 00-4.3-.16c-1.71 0-3.41.04-4.16.12zm-.32 6.92a4.445 4.445 0 014.45-4.41 4.37 4.37 0 014.37 4.41 4.458 4.458 0 01-4.45 4.41 4.37 4.37 0 01-4.37-4.41zm1.55-.03a2.834 2.834 0 002.81 2.88h.02a2.882 2.882 0 002.88-2.82 2.82 2.82 0 00-2.8-2.88h-.03a2.881 2.881 0 00-2.88 2.82zm6.45-4.55a1.029 1.029 0 011.03-1.03h.01a1.016 1.016 0 011.02 1.04 1.035 1.035 0 01-1.04 1.02 1.014 1.014 0 01-1.02-1.03z" transform="translate(-1001 -1945)"/></svg><svg viewBox="0 0 48.03 63.94" id="medal" xmlns="http://www.w3.org/2000/svg"><defs><style>.jcls-1{fill:#243f4d;fill-rule:evenodd}</style></defs><path class="jcls-1" d="M32.09 7.95a17.9 17.9 0 00-20.89 3.38 18.376 18.376 0 00-1.5 24.05 1.029 1.029 0 00.79.39.981.981 0 00.62-.22 1.011 1.011 0 00.17-1.41 16.324 16.324 0 011.33-21.38 15.907 15.907 0 0118.58-3.01 1 1 0 001.34-.44 1.018 1.018 0 00-.44-1.36zM40.06 16a.99.99 0 00-1.34-.44 1.007 1.007 0 00-.44 1.35 16.279 16.279 0 01-2.98 18.75A15.948 15.948 0 0114.12 37a.992.992 0 00-1.4.18 1.011 1.011 0 00.17 1.41 17.914 17.914 0 0023.82-1.5A18.316 18.316 0 0040.06 16zm-2.58-3.84c-.24-.28-.5-.56-.77-.83s-.54-.53-.82-.78a1.003 1.003 0 00-1.32 1.51c.25.23.49.46.73.7s.47.49.69.74a.991.991 0 00.74.34 1.05 1.05 0 00.67-.25 1.021 1.021 0 00.08-1.43zm10.04 13.86a3.439 3.439 0 000-3.58l-1.31-2.17a1.412 1.412 0 01-.19-.96l.39-2.51a3.427 3.427 0 00-1.36-3.31l-2.03-1.5a1.384 1.384 0 01-.54-.81l-.6-2.47a3.391 3.391 0 00-2.5-2.53l-2.45-.6a1.448 1.448 0 01-.81-.54l-1.48-2.06a3.365 3.365 0 00-3.28-1.37L28.88 2a1.374 1.374 0 01-.95-.19L25.77.49a3.326 3.326 0 00-3.54 0l-2.15 1.32a1.384 1.384 0 01-.95.19l-2.49-.39a3.373 3.373 0 00-3.28 1.37l-1.48 2.05a1.393 1.393 0 01-.8.55l-2.45.6a3.388 3.388 0 00-2.51 2.53l-.59 2.47a1.415 1.415 0 01-.54.81l-2.04 1.5a3.427 3.427 0 00-1.36 3.31l.39 2.51a1.406 1.406 0 01-.18.96L.48 22.44a3.484 3.484 0 000 3.58l1.32 2.17a1.406 1.406 0 01.18.96l-.39 2.51a3.427 3.427 0 001.36 3.31l2.04 1.5a1.384 1.384 0 01.54.81l.59 2.47a3.391 3.391 0 002.5 2.53l1.03.25-6.93 15.59a1.043 1.043 0 00.11 1.01.981.981 0 00.92.4l5.57-.67 3.21 4.65a1.01 1.01 0 00.82.43h.1a.994.994 0 00.81-.6l7.08-15.92.89.55a3.326 3.326 0 003.54 0l.93-.57 7.08 15.94a1.009 1.009 0 00.82.6h.09a1 1 0 00.82-.43l3.21-4.65 5.57.68a1.015 1.015 0 001.03-1.42l-6.93-15.6.99-.24a3.391 3.391 0 002.5-2.53l.6-2.47a1.384 1.384 0 01.54-.81l2.03-1.5a3.427 3.427 0 001.36-3.31l-.39-2.51a1.412 1.412 0 01.19-.96zM13.16 60.9l-2.54-3.69a.99.99 0 00-.94-.42l-4.41.53 6.31-14.2a1.421 1.421 0 01.3.3l1.48 2.06a3.958 3.958 0 00.47.53l-3.32 7.48a1.005 1.005 0 00.91 1.42 1 1 0 00.91-.6l3.31-7.45a3.725 3.725 0 001-.01l2.49-.39a1.086 1.086 0 01.44 0zm29.62-3.58l-4.42-.53a.983.983 0 00-.93.42l-2.55 3.69-6.41-14.45a1.136 1.136 0 01.41.01l2.48.39a3.3 3.3 0 001.04 0l3.31 7.46a1.012 1.012 0 00.91.6.978.978 0 00.41-.09 1.011 1.011 0 00.5-1.33l-3.33-7.51a3.5 3.5 0 00.44-.5l1.48-2.06a1.518 1.518 0 01.34-.33zm3.04-32.35l-1.32 2.17a3.435 3.435 0 00-.45 2.32l.39 2.51a1.419 1.419 0 01-.56 1.37l-2.04 1.5a3.4 3.4 0 00-1.3 1.96l-.6 2.48a1.383 1.383 0 01-1.03 1.04l-2.45.6a3.357 3.357 0 00-1.95 1.32l-1.48 2.05a1.39 1.39 0 01-1.36.57l-2.48-.4a3.42 3.42 0 00-2.3.46l-2.16 1.33a1.374 1.374 0 01-1.46 0l-2.15-1.33a3.4 3.4 0 00-1.78-.5 4.55 4.55 0 00-.52.04l-2.49.4a1.382 1.382 0 01-1.35-.57l-1.49-2.05a3.357 3.357 0 00-1.95-1.32l-2.45-.6a1.383 1.383 0 01-1.03-1.04l-.59-2.48a3.412 3.412 0 00-1.31-1.96l-2.03-1.5a1.426 1.426 0 01-.57-1.37l.4-2.51a3.5 3.5 0 00-.46-2.32l-1.31-2.17a1.409 1.409 0 010-1.48l1.31-2.17A3.5 3.5 0 003.96 19l-.39-2.52a1.391 1.391 0 01.56-1.36l2.03-1.5a3.467 3.467 0 001.31-1.97l.59-2.47a1.383 1.383 0 011.03-1.04l2.45-.6a3.412 3.412 0 001.96-1.32l1.48-2.05a1.382 1.382 0 011.35-.57l2.49.39a3.331 3.331 0 002.3-.46l2.15-1.32a1.374 1.374 0 011.46 0l2.16 1.32a3.31 3.31 0 002.3.46l2.48-.39a1.39 1.39 0 011.36.57l1.48 2.05a3.389 3.389 0 001.95 1.32l2.45.6a1.383 1.383 0 011.03 1.04l.6 2.47a3.42 3.42 0 001.3 1.97l2.04 1.5a1.411 1.411 0 01.56 1.36L44.05 19a3.435 3.435 0 00.45 2.32l1.32 2.17a1.453 1.453 0 010 1.48zm-10.13-3.88a1.788 1.788 0 00-1.51-1.24l-6.01-.72-2.53-5.55a1.8 1.8 0 00-3.28 0l-2.53 5.55-6.01.72a1.775 1.775 0 00-1.5 1.24 1.818 1.818 0 00.49 1.9l4.44 4.15-1.18 5.99a1.819 1.819 0 001.77 2.18 1.767 1.767 0 00.88-.24L24 32.09l5.28 2.98a1.757 1.757 0 001.94-.11 1.807 1.807 0 00.71-1.83l-1.18-5.99 4.44-4.15a1.8 1.8 0 00.5-1.9zm-6.7 4.95a1.006 1.006 0 00-.3.94l1.2 6.13-5.4-3.05a.947.947 0 00-.49-.13.973.973 0 00-.49.13l-5.4 3.05 1.21-6.13a1.031 1.031 0 00-.3-.94l-4.55-4.24 6.15-.74a1.01 1.01 0 00.79-.58L24 14.81l2.59 5.67a1.01 1.01 0 00.79.58l6.15.74z"/></svg><svg viewBox="0 0 43.12 39.094" id="megaphone" xmlns="http://www.w3.org/2000/svg"><defs><style>.kcls-1{fill:#a3bbc8;fill-rule:evenodd}</style></defs><path class="kcls-1" d="M37.87 9.304V2.178A2.174 2.174 0 0036.82.291 2.076 2.076 0 0034.69.27a48.669 48.669 0 01-20.7 6.383l-6.68.034a3.286 3.286 0 00-3.23 2.949H2.72A2.749 2.749 0 00.01 12.41v6.1a2.748 2.748 0 002.71 2.774h1.36a3.32 3.32 0 001.91 2.664l4.85 13.723a2.118 2.118 0 001.98 1.428h4.86a2.1 2.1 0 001.73-.925 2.221 2.221 0 00.25-1.986l-4.15-11.785a48.668 48.668 0 0119.18 6.244 2.08 2.08 0 002.13-.021 2.174 2.174 0 001.05-1.887v-7.126a6.228 6.228 0 000-12.309zM4.05 19.14H2.72a.622.622 0 01-.62-.634v-6.1a.623.623 0 01.62-.634h1.33v7.364zm2.78 2.844a1.2 1.2 0 01-.69-1.1V10.03a1.185 1.185 0 011.17-1.2h5.67v13.262H7.23a1.027 1.027 0 01-.4-.108zm10.88 14.93a.037.037 0 01-.01.028c-.01.013-.01.013-.02.013h-4.86a.049.049 0 01-.03-.018L8.31 24.229h4.92zm18.08-8.179a.037.037 0 01-.03.041.04.04 0 01-.05 0 50.66 50.66 0 00-20.65-6.57v-13.5a50.692 50.692 0 0020.65-6.571.04.04 0 01.05 0 .037.037 0 01.03.041v26.557zm2.08-9.292v-7.974a4.089 4.089 0 010 7.974z"/></svg><svg viewBox="0 0 41.78 40.406" id="one" xmlns="http://www.w3.org/2000/svg"><defs><style>.lcls-1{fill:#a3bbc8;fill-rule:evenodd}</style></defs><path class="lcls-1" d="M12.56 31.95a8.516 8.516 0 01.83-3.671L.17 7.833a.919.919 0 01.11-1.139L6.6.276A.9.9 0 017.23.01h27.35a.882.882 0 01.63.266l6.32 6.418a.906.906 0 01.11 1.139L28.42 28.28a8.508 8.508 0 01.83 3.67 8.346 8.346 0 11-16.69 0zm1.79 0a6.556 6.556 0 106.56-6.661 6.617 6.617 0 00-6.56 6.661zm8.55-8.23a8.324 8.324 0 014.47 2.884L39.24 8.242H32.9zm-8.46 2.883a8.354 8.354 0 014.48-2.883L8.91 8.242H2.57zm6.45-3.127h.03l9.85-15.234H11.04zM3.07 6.429h35.67l-4.53-4.606H7.6zm17.25 28.919v-4.9h-.53a.907.907 0 010-1.814h1.42a.9.9 0 01.89.908v5.808a.89.89 0 11-1.78-.007z"/></svg><svg viewBox="0 0 512.001 512.001" id="pay" xmlns="http://www.w3.org/2000/svg"><path d="M434.51 75.991h-387c-22.1 0-40.01 17.91-40.01 40s17.91 40 40.01 40h387c22.09 0 40 17.91 40 40v-80c0-22.09-17.91-40-40-40z" fill="#ce3a50"/><path d="M474.51 436.001c0 22.09-17.91 40-40 40h-387c-22.09 0-40-17.91-40-40H7.5v-320.01c0 22.09 17.91 40 40.01 40h387c22.09 0 40 17.91 40 40v240.01z" fill="#da4453"/><g fill="#ce3a50"><path d="M434.51 155.991h-30.003c22.09 0 40 17.91 40 40v240.01c0 22.09-17.91 40-40 40h30.003c22.09 0 40-17.91 40-40v-240.01c0-22.09-17.91-40-40-40zM489.5 225.991c8.28 0 15 6.72 15 15 0 8.279-6.72 14.99-15 14.99v.01h-14.99v-30h14.99z"/></g><path d="M504.5 240.991v120c0 8.279-6.72 15-15 15H384.49l-39.99-60 39.99-60H489.5v-.01c8.28 0 15-6.711 15-14.99z" fill="#ed5565"/><path d="M489.5 255.981v.01h-15.003v105c0 8.279-6.72 15-15 15H489.5c8.28 0 15-6.721 15-15v-120c0 8.279-6.72 14.99-15 14.99z" fill="#da4453"/><path fill="#a0d468" d="M367.5 116.001H67.51l10-40.01 9.99-40 139.98 40z"/><path d="M434.51 75.991h-30.003c22.09 0 40 17.91 40 40v41.26c17.253 4.439 30.003 20.102 30.003 38.74v-80c0-22.09-17.91-40-40-40z" fill="#bf2e4a"/><path d="M414.5 295.991c11.05 0 20 8.96 20 20 0 11.05-8.95 20-20 20s-20-8.95-20-20c0-11.04 8.95-20 20-20z" fill="#ffce54"/><path d="M489.502 218.492h-7.496V115.988c0-26.192-21.309-47.501-47.5-47.501H228.527L89.564 28.783c-.04-.011-.081-.017-.121-.028-.041-.011-.08-.027-.121-.037-.084-.021-.167-.031-.25-.049-.129-.027-.258-.055-.387-.076-.117-.019-.232-.031-.349-.045a7.042 7.042 0 00-.406-.038c-.11-.006-.219-.007-.329-.009a7.276 7.276 0 00-.418.003c-.103.004-.206.014-.308.022a6.712 6.712 0 00-.427.046c-.096.014-.191.032-.286.049-.146.026-.29.054-.433.089-.089.022-.176.047-.264.072-.146.042-.29.085-.434.135-.081.029-.161.06-.242.092a7.358 7.358 0 00-.43.18c-.075.035-.148.073-.222.11a6.66 6.66 0 00-.416.224c-.071.041-.139.085-.209.129-.134.084-.266.17-.394.263-.067.048-.132.1-.198.151a7.277 7.277 0 00-.362.295c-.066.058-.129.119-.193.179-.11.104-.219.208-.323.318-.065.069-.126.141-.189.213a7.45 7.45 0 00-.278.334c-.064.083-.124.168-.185.253a6.913 6.913 0 00-.229.338c-.062.098-.119.2-.176.301a6.86 6.86 0 00-.183.338c-.056.112-.106.227-.157.342-.05.113-.099.226-.143.342-.046.122-.086.247-.127.373-.026.081-.058.157-.082.239-.012.041-.017.081-.028.121-.011.041-.027.08-.037.121l-8.576 34.312H47.505C21.366 68.485.094 89.708.008 115.828c-.001.054-.008.105-.008.158v260c0 4.14 3.37 7.5 7.5 7.5 4.14 0 7.5-3.36 7.5-7.5V150.579c8.504 7.996 19.938 12.91 32.505 12.91h387.001l.026-.001c17.908.014 32.474 14.588 32.474 32.501v52.504h-82.512l-.014.001a7.468 7.468 0 00-1.355.13c-.035.006-.069.009-.104.016a7.536 7.536 0 00-.579.145c-.042.012-.085.02-.126.033-.17.052-.335.114-.5.177-.063.024-.127.044-.19.07-.138.057-.271.124-.404.189-.088.042-.177.081-.263.126-.104.055-.202.118-.302.178-.111.066-.224.13-.332.202-.073.048-.14.103-.21.154-.128.092-.257.183-.379.284-.053.044-.102.093-.153.138-.131.114-.262.227-.386.351-.073.073-.139.153-.208.229-.097.105-.197.208-.289.32a7.573 7.573 0 00-.444.599l-39.998 60.001a7.383 7.383 0 00-.702 1.322c-.071.172-.128.347-.185.521-.017.053-.039.104-.055.157a7.46 7.46 0 00-.14.558c-.011.049-.025.097-.035.146a7.265 7.265 0 00-.076.506c-.009.072-.023.144-.03.217-.014.139-.017.277-.022.416-.005.106-.014.212-.014.319 0 .103.009.206.013.309.005.142.009.285.023.427.007.069.02.138.029.207.022.172.044.344.078.515.009.047.023.093.034.14.041.188.085.376.141.563.016.053.038.104.055.158.057.174.114.349.185.521.188.46.424.904.704 1.323l39.997 59.992.006.008c.161.239.337.467.523.686.061.072.126.139.189.207a7.508 7.508 0 001.091.979c.07.051.137.107.208.155.225.153.458.294.699.422.061.032.124.059.185.089a7.239 7.239 0 001.407.532c.081.021.161.043.243.063.203.047.409.083.618.113.076.011.151.026.227.035.258.029.52.045.786.047.021 0 .042.004.064.004l.014-.001h82.491V436c0 17.922-14.58 32.502-32.5 32.502h-387c-17.92 0-32.5-14.58-32.5-32.502 0-.039-.005-.077-.006-.116V405.99c0-4.13-3.36-7.5-7.5-7.5-4.13 0-7.5 3.37-7.5 7.5V436c0 .078.009.154.012.231.125 26.086 21.38 47.271 47.494 47.271h387c26.189 0 47.496-21.305 47.5-47.494v-52.516h7.496c12.404 0 22.496-10.092 22.496-22.496V240.988c-.003-12.404-10.095-22.496-22.499-22.496zm7.496 142.5c0 4.133-3.363 7.496-7.496 7.496H388.508l-34.999-52.494 34.999-52.502h100.994c.105 0 .207-.012.311-.016a22.414 22.414 0 007.185-1.281v98.797zM92.9 45.336l132.339 37.813.019.005 88.696 25.342H77.114L92.9 45.336zm341.606 103.151l-.039.002H47.505c-17.921 0-32.501-14.58-32.501-32.501s14.58-32.501 32.501-32.501h20.398l-6.25 25.009H47.507a7.5 7.5 0 000 15h19.976l.032.002.023-.002h299.941l.028.002.024-.002h56.966a7.5 7.5 0 000-15h-55.943l-87.529-25.009h153.48c17.92 0 32.5 14.58 32.5 32.501v45.406c-8.503-7.994-19.935-12.907-32.499-12.907zm47.5 85.005h7.496c4.133 0 7.496 3.363 7.496 7.496s-3.363 7.496-7.496 7.496c-.052 0-.103.007-.155.008h-7.341v-15z"/><path d="M414.499 288.493c-15.164 0-27.5 12.337-27.5 27.501s12.336 27.5 27.5 27.5 27.5-12.336 27.5-27.5-12.336-27.501-27.5-27.501zm0 40.001c-6.893 0-12.5-5.607-12.5-12.5s5.607-12.501 12.5-12.501 12.5 5.608 12.5 12.501-5.607 12.5-12.5 12.5z"/></svg><svg viewBox="0 0 64 57" id="pc" xmlns="http://www.w3.org/2000/svg"><defs><style>.ncls-1{fill:#243f4d;fill-rule:evenodd}</style></defs><path class="ncls-1" d="M60.635 0H3.365A3.368 3.368 0 000 3.36V44.5a3.368 3.368 0 003.365 3.36h21.691l-.877 7h-3.633a1.07 1.07 0 100 2.14h22.908a1.07 1.07 0 100-2.14H39.82l-.877-7h21.692A3.368 3.368 0 0064 44.5V3.36A3.368 3.368 0 0060.635 0zM26.344 54.86l.877-7h9.558l.877 7H26.344zM61.852 44.5a1.213 1.213 0 01-1.217 1.21H3.365a1.212 1.212 0 01-1.217-1.21V3.36a1.221 1.221 0 011.217-1.22h57.27a1.222 1.222 0 011.217 1.22V44.5zM50.327 4.57H5.655a1.072 1.072 0 00-1.073 1.07v35.43a1.072 1.072 0 001.073 1.07h3.437a1.07 1.07 0 100-2.14H6.729V6.71h43.6a1.07 1.07 0 10-.002-2.14zm8.017 0h-3.436a1.07 1.07 0 100 2.14h2.363V40h-43.6a1.07 1.07 0 100 2.14h44.671a1.073 1.073 0 001.074-1.07V5.64a1.073 1.073 0 00-1.072-1.07zm-6.872 5.72a3.352 3.352 0 00-2.97 4.93l-8.6 9.09a3.322 3.322 0 00-1.408-.31 3.361 3.361 0 00-2.314.92l-7.348-3.88a3.364 3.364 0 10-6.684-.54 3.352 3.352 0 00.328 1.45l-8.406 8.14a3.331 3.331 0 00-1.539-.38 3.36 3.36 0 103.036 1.91l8.406-8.14a3.328 3.328 0 003.852-.55l7.348 3.88a3.54 3.54 0 00-.044.55 3.365 3.365 0 106.334-1.58l8.6-9.09a3.316 3.316 0 001.408.31 3.355 3.355 0 10.001-6.71zm-38.944 24a1.215 1.215 0 111.217-1.22 1.222 1.222 0 01-1.217 1.22zm12.981-12.58a1.21 1.21 0 111.217-1.21 1.213 1.213 0 01-1.217 1.21zm12.982 6.86a1.215 1.215 0 111.217-1.21 1.212 1.212 0 01-1.217 1.21zm12.981-13.71a1.215 1.215 0 111.217-1.22 1.222 1.222 0 01-1.217 1.22zm0 4.57a1.073 1.073 0 00-1.074 1.07v16a1.074 1.074 0 002.148 0v-16a1.073 1.073 0 00-1.074-1.07zm-25.963 6.86a1.066 1.066 0 00-1.074 1.07v9.14a1.074 1.074 0 002.148 0v-9.14a1.066 1.066 0 00-1.074-1.07zm12.982 6.85a1.073 1.073 0 00-1.074 1.07v2.29a1.074 1.074 0 002.147 0v-2.29a1.072 1.072 0 00-1.073-1.07z"/></svg><svg viewBox="0 0 67 64" id="phone" xmlns="http://www.w3.org/2000/svg"><defs><style>.ocls-1{fill:#243f4d;fill-rule:evenodd}</style></defs><path class="ocls-1" d="M57.06 53.46a4.359 4.359 0 00-2.21-3.23l-11.59-6.45a4.614 4.614 0 00-5.46.74l-4.07 4.03a2.4 2.4 0 01-3.1.24A75.725 75.725 0 0115.38 33.7a2.362 2.362 0 01.24-3.07l4.07-4.03a4.484 4.484 0 00.75-5.4L13.92 9.74a4.37 4.37 0 00-3.26-2.19A4.685 4.685 0 006.7 8.89l-4.29 4.24c-3.04 3.01-3.2 8.38-.45 15.13 2.62 6.46 7.61 13.53 14.05 19.9S29.6 59.48 36.13 62.07A23.842 23.842 0 0044.78 64a9.073 9.073 0 006.63-2.37l4.29-4.25a4.6 4.6 0 001.36-3.92zm-2.89 2.4l-.75.75-9.88-5.34a1.09 1.09 0 00-1.47.43 1.066 1.066 0 00.43 1.46l9.32 5.03-1.94 1.92c-2.35 2.32-7.06 2.31-12.94-.03-6.27-2.49-13.15-7.26-19.39-13.44S6.49 33.66 3.97 27.46c-2.36-5.82-2.37-10.49-.03-12.81l1.94-1.92 1.04 1.89a1.109 1.109 0 00.96.56 1.095 1.095 0 00.95-1.59l-1.35-2.44.75-.74a2.573 2.573 0 011.8-.76 1.841 1.841 0 01.33.03 2.221 2.221 0 011.67 1.11l6.52 11.47a2.363 2.363 0 01-.39 2.83L16.22 27l-5.08-9.22a1.1 1.1 0 00-1.47-.43 1.078 1.078 0 00-.44 1.46l5.39 9.77-.53.53a4.5 4.5 0 00-.45 5.87 75.017 75.017 0 007.28 8.32 76.9 76.9 0 008.41 7.21 4.624 4.624 0 005.94-.44l.53-.53 2.46 1.33a1.112 1.112 0 00.52.13 1.089 1.089 0 00.96-.56 1.064 1.064 0 00-.44-1.45l-1.9-1.03 1.93-1.92a2.438 2.438 0 012.86-.39l11.59 6.45a2.244 2.244 0 011.13 1.65 2.517 2.517 0 01-.74 2.11zm-2.14-28.37H50.8v-9.24a1.085 1.085 0 00-2.17 0v9.24h-5.67l2.02-9a1.069 1.069 0 00-.82-1.28 1.083 1.083 0 00-1.3.81l-2.31 10.31a1.073 1.073 0 00.21.9 1.091 1.091 0 00.85.41h7.01v3.5a1.09 1.09 0 002.18 0v-3.5h1.22a1.075 1.075 0 10.01-2.15zm-13.89 4.58h-7.99c.47-1.23 1.81-2.01 3.73-3.05 2.38-1.29 5.34-2.88 5.34-6.51a5.729 5.729 0 00-11.43 0 1.085 1.085 0 002.17 0 3.566 3.566 0 017.09 0c0 2.19-1.59 3.21-4.21 4.62-2.36 1.28-5.05 2.73-5.05 6.01a1.084 1.084 0 001.09 1.08h9.26a1.075 1.075 0 100-2.15zm22.93 12.62l-2.11.42A26.086 26.086 0 0067 26.27a26.608 26.608 0 00-48.27-15.11 1.065 1.065 0 00.26 1.5 1.1 1.1 0 001.51-.26 24.436 24.436 0 0144.33 13.87 23.961 23.961 0 01-7.59 17.5l.48-2.4a1.069 1.069 0 00-.85-1.26 1.085 1.085 0 00-1.28.84l-1.16 5.73a1.069 1.069 0 00.3.97 1.107 1.107 0 00.77.31.749.749 0 00.21-.02l5.79-1.14a1.077 1.077 0 10-.43-2.11zM40.45 4.58a1.073 1.073 0 00-1.08 1.07v2.3a1.085 1.085 0 002.17 0v-2.3a1.082 1.082 0 00-1.09-1.07zM61.28 25.2h-2.31a1.075 1.075 0 100 2.15h2.31a1.075 1.075 0 100-2.15zm-36.33-9.02l-2-1.15a1.091 1.091 0 00-1.48.4 1.064 1.064 0 00.39 1.46l2.01 1.15a1.063 1.063 0 00.54.14 1.081 1.081 0 00.94-.53 1.07 1.07 0 00-.4-1.47zm34.09 19.47l-2.01-1.14a1.075 1.075 0 10-1.08 1.86l2 1.14a1.063 1.063 0 00.54.14 1.081 1.081 0 00.94-.53 1.067 1.067 0 00-.39-1.47zM51.41 7.49a1.088 1.088 0 00-1.48.39l-1.16 1.98a1.074 1.074 0 00.94 1.61 1.093 1.093 0 00.94-.53l1.16-1.99a1.059 1.059 0 00-.4-1.46zM31.73 41.21a1.091 1.091 0 00-1.48.4l-1.16 1.98a1.073 1.073 0 00.4 1.47 1.174 1.174 0 00.54.14 1.07 1.07 0 00.94-.54l1.16-1.98a1.073 1.073 0 00-.4-1.47zm27.7-25.78a1.091 1.091 0 00-1.48-.4l-2 1.15a1.07 1.07 0 00-.4 1.47 1.093 1.093 0 00.94.53 1.063 1.063 0 00.54-.14l2.01-1.15a1.056 1.056 0 00.39-1.46zM25.35 34.9a1.079 1.079 0 00-1.48-.39l-2.01 1.14a1.072 1.072 0 00.55 2 1.063 1.063 0 00.54-.14l2-1.14a1.073 1.073 0 00.4-1.47zm6.78-25.04l-1.16-1.98a1.088 1.088 0 00-1.48-.39 1.059 1.059 0 00-.4 1.46l1.16 1.99a1.1 1.1 0 00.94.54 1.048 1.048 0 00.54-.15 1.07 1.07 0 00.4-1.47zm19.68 33.73l-1.16-1.98a1.091 1.091 0 00-1.48-.4 1.073 1.073 0 00-.4 1.47l1.16 1.98a1.07 1.07 0 00.94.54 1.174 1.174 0 00.54-.14 1.073 1.073 0 00.4-1.47z"/></svg><svg viewBox="0 0 6.1 10.97" id="promo-arrow" xmlns="http://www.w3.org/2000/svg"><defs><style>.pcls-1{fill:#262626;fill-rule:evenodd}</style></defs><path class="pcls-1" d="M.55 10.97a.53.53 0 01-.41-.19.6.6 0 01-.15-.4.631.631 0 01.17-.43l4.55-4.47L.16 1A.607.607 0 01-.01.58.629.629 0 01.14.17a.559.559 0 01.8-.02l4.98 4.9.01.01a.657.657 0 01.12.17.7.7 0 01.05.25.742.742 0 01-.05.25.61.61 0 01-.12.16c0 .01-.01.01-.01.02l-4.98 4.9a.589.589 0 01-.39.16z"/></svg><svg viewBox="0 0 511.999 511.999" id="support" xmlns="http://www.w3.org/2000/svg"><path d="M362.585 280.61l-97.245 25.286a37.16 37.16 0 01-18.341.092l-102.588-25.581c-16.269-4.057-27.686-18.67-27.686-35.437V132.891c0-69.248 56.137-125.385 125.385-125.385h22.422c69.248 0 125.385 56.137 125.385 125.385v112.372c-.002 16.631-11.237 31.162-27.332 35.347z" fill="#fd9727"/><path d="M264.531 7.507h-22.422c-5.632 0-11.175.378-16.611 1.097 61.395 8.127 108.774 60.672 108.774 124.287v112.372c0 16.631-11.236 31.162-27.331 35.347l-79.164 20.584 19.222 4.793a37.16 37.16 0 0018.341-.092l97.245-25.286c16.096-4.185 27.331-18.716 27.331-35.347V132.891C389.915 63.643 333.779 7.507 264.531 7.507z" fill="#ff6d3a"/><g fill="#3d6687"><path d="M122.528 211.167h26.607v-64.958h-26.607c-7.817 0-14.154 6.337-14.154 14.154v36.651c0 7.816 6.337 14.153 14.154 14.153zM389.471 211.167h-26.607v-64.958h26.607c7.817 0 14.154 6.337 14.154 14.154v36.651c.001 7.816-6.336 14.153-14.154 14.153z"/></g><path d="M316.077 324.509a19.926 19.926 0 01-16-19.536v-44.917h-88.154v44.917a19.926 19.926 0 01-16 19.536l-10.74 2.159v72.13H326.816v-72.13l-10.739-2.159z" fill="#fed9a8"/><path d="M407.848 348.727l-88.408-27.565a7.937 7.937 0 00-7.824 1.817L256 375.685l-55.616-52.706a7.942 7.942 0 00-7.824-1.817l-88.408 27.565c-39.196 11.541-66.108 47.519-66.108 88.379v58.897a8.489 8.489 0 008.489 8.489h418.933a8.49 8.49 0 008.49-8.489v-58.897c0-40.859-26.912-76.838-66.108-88.379z" fill="#ff4c4c"/><path d="M407.848 348.727l-88.408-27.565a7.938 7.938 0 00-7.824 1.817l-10.396 9.852 50.984 15.896c39.196 11.54 66.108 47.519 66.108 88.379v67.386h47.154a8.49 8.49 0 008.49-8.489v-58.897c0-40.859-26.912-76.838-66.108-88.379z" fill="#ef2929"/><path d="M256 297.403c-60.679 0-109.868-49.19-109.868-109.868v-30.877C146.132 95.98 195.322 46.79 256 46.79s109.868 49.19 109.868 109.868v30.877c0 60.679-49.19 109.868-109.868 109.868z" fill="#fed9a8"/><path d="M310.224 61.088v126.447c0 51.066-34.84 93.991-82.046 106.311A110.044 110.044 0 00256 297.403c60.678 0 109.868-49.19 109.868-109.868v-30.876c0-40.958-22.415-76.677-55.644-95.571z" fill="#f4c892"/><g fill="#d4145a"><path d="M200.384 322.979L256 375.685l-34.3 11.685a21.922 21.922 0 01-23.556-6.303l-42.425-48.417 36.84-11.486a7.938 7.938 0 017.825 1.815zM311.616 322.979L256 375.685l31.087 10.59a26.993 26.993 0 0029.006-7.762l40.188-45.864-36.84-11.486a7.94 7.94 0 00-7.825 1.816z"/></g><path d="M190.372 460.897h-56.55a5.685 5.685 0 01-5.685-5.685v-25.047a5.685 5.685 0 015.685-5.685h56.55a5.685 5.685 0 015.685 5.685v25.047a5.685 5.685 0 01-5.685 5.685z" fill="#eda558"/><path d="M389.915 156.05s-47.402-3.762-63.622-47.364c0 0-114.587 91.74-209.569 47.364v-23.159c0-69.248 56.137-125.385 125.385-125.385h22.422c69.248 0 125.385 56.137 125.385 125.385v23.159h-.001z" fill="#fd9727"/><path d="M264.531 7.507h-22.422c-5.632 0-11.175.378-16.611 1.097 58.377 7.728 104.078 55.614 108.43 114.991 19.989 29.593 55.987 32.455 55.987 32.455v-23.159c0-69.248-56.136-125.384-125.384-125.384z" fill="#ff6d3a"/><path d="M275.587 283.743c-6.939 0-13.075-4.992-14.287-12.062-1.355-7.9 3.951-15.403 11.851-16.757l24.472-4.197c7.902-1.357 15.403 3.951 16.758 11.851 1.355 7.9-3.951 15.403-11.851 16.757l-24.472 4.197c-.83.143-1.656.211-2.471.211z" fill="#d4145a"/><path d="M461.612 377.425c-12.975-17.346-30.81-29.751-51.585-35.882l-51.5-16.057-.011-.004-36.839-11.485a15.424 15.424 0 00-9.914.247c-2.608-2.323-4.179-5.689-4.179-9.271v-2.304l56.89-14.792c19.4-5.045 32.949-22.567 32.949-42.613v-28.108c8.02-3.177 13.71-11.005 13.71-20.142v-36.651a21.52 21.52 0 00-13.71-20.132v-7.339c0-5.655-.359-11.348-1.068-16.924-.523-4.112-4.283-7.013-8.393-6.5a7.507 7.507 0 00-6.5 8.394c.629 4.95.948 10.006.948 15.03V147.115a81.998 81.998 0 01-14.743-5.077c-.264-.12-.524-.243-.786-.365-10.6-4.979-22.408-13.469-30.068-27.858a67.852 67.852 0 01-1.186-2.347 65.878 65.878 0 01-.618-1.346c-.188-.417-.379-.829-.56-1.254-.39-.92-.767-1.851-1.12-2.8a7.504 7.504 0 00-6.796-4.886c-.111-.004-.222.007-.333.009-.183.002-.366-.001-.548.015a7.498 7.498 0 00-3.628 1.321c-.141.098-.286.19-.422.298a31.697 31.697 0 01-.353.277l-.225.174-.178.137a112.752 112.752 0 01-.58.444l-.184.14-.552.417-.126.095c-13.89 10.419-91.182 65.242-165.356 54.779l-.393-.058a128.836 128.836 0 01-7.673-1.353c-.33-.069-.662-.135-.991-.207a120.572 120.572 0 01-3.55-.824c-.48-.119-.956-.249-1.434-.374a122.458 122.458 0 01-3.92-1.091 124.182 124.182 0 01-4.525-1.45 113.71 113.71 0 01-3.817-1.374c-1.075-.409-2.148-.83-3.218-1.274-.098-.041-.198-.078-.296-.119v-18.273c0-64.998 52.88-117.878 117.878-117.878h22.422a117.842 117.842 0 01108.308 71.271 7.506 7.506 0 009.865 3.923 7.506 7.506 0 003.923-9.864A132.845 132.845 0 00264.531 0H242.11c-73.277 0-132.891 59.614-132.891 132.891v10.412c-5.184 4.05-8.351 10.315-8.351 17.059v36.651c0 6.928 3.274 13.102 8.351 17.07v30.887a43.96 43.96 0 0033.376 42.721l61.822 15.416v1.866c0 3.583-1.571 6.95-4.18 9.273a15.45 15.45 0 00-9.911-.249l-36.84 11.486-.012.004-51.498 16.057c-28.552 8.425-51.656 28.952-63.394 56.326a100.054 100.054 0 00-2.498 6.434 7.506 7.506 0 004.614 9.561 7.509 7.509 0 009.561-4.614 85.515 85.515 0 012.122-5.466c9.976-23.267 29.619-40.71 53.891-47.857l.114-.034 46.906-14.625 39.206 44.745c5.704 6.509 13.776 10.047 22.092 10.047a29.568 29.568 0 009.531-1.585L256 383.616l28.666 9.765a34.632 34.632 0 0011.174 1.858c9.749-.001 19.213-4.149 25.899-11.779l36.969-42.191 46.906 14.625.114.034c17.664 5.201 32.832 15.745 43.861 30.49 11.03 14.745 16.86 32.272 16.86 50.687v58.897a.984.984 0 01-.982.983h-40.549v-68.624a7.507 7.507 0 00-15.014 0v68.624H102.096v-68.624a7.507 7.507 0 00-15.014 0v68.624H46.533a.983.983 0 01-.982-.983v-54.06a7.507 7.507 0 00-15.014 0v54.06c0 8.82 7.176 15.997 15.996 15.997h418.934c8.82 0 15.996-7.176 15.996-15.997v-58.897c0-21.68-6.865-42.317-19.851-59.68zm-79.203-132.162c0 13.21-8.929 24.758-21.713 28.082l-36.051 9.374c.462-.334.906-.689 1.362-1.029.188-.14.374-.283.561-.424a116.34 116.34 0 003.786-2.979l.485-.4a118.246 118.246 0 003.896-3.378l.185-.166a118.285 118.285 0 005.9-5.758c.142-.148.281-.299.421-.447.939-.993 1.864-1.999 2.768-3.023l8.473-1.453a39.099 39.099 0 0029.926-24.441v6.042h.001zm-10.106-41.89c.335-2.472.594-4.968.772-7.487.018-.255.032-.51.049-.764.063-.984.114-1.97.152-2.96.013-.319.027-.637.036-.956.038-1.22.063-2.442.063-3.671v-27.282c8.756 2.632 15.134 3.214 15.929 3.278l.017.001h.009a7.5 7.5 0 006.247-2.557c.063-.072.117-.15.177-.224.11-.137.221-.274.321-.418.013-.019.03-.037.043-.056V197.012c0 3.557-2.81 6.462-6.327 6.63-.041.001-.082-.004-.124-.002-.118.004-.235.01-.366.019h-17.035c.015-.094.024-.19.037-.286zm-11.911 37.785a117.138 117.138 0 001.528-3.074 132.42 132.42 0 002.084-4.6c.224-.525.44-1.054.657-1.583.377-.92.742-1.846 1.097-2.777.163-.43.332-.857.491-1.289a115.75 115.75 0 001.241-3.586c.148-.449.296-.897.439-1.348.392-1.238.764-2.485 1.116-3.74.046-.163.1-.322.145-.485h.854v6.354a24.114 24.114 0 01-12.344 21.086c.191-.33.364-.67.552-1.001.432-.765.857-1.534 1.272-2.309.291-.549.583-1.096.868-1.648zm-240.586-38.089l-.02-.007c-2.3-1.047-3.905-3.361-3.905-6.048v-33.1c.22.097.443.189.663.285a126.472 126.472 0 003.287 1.379c.329.133.656.267.986.397 1.012.4 2.029.789 3.053 1.165l.125.047a135.794 135.794 0 0014.629 4.428v15.921c0 1.229.025 2.451.063 3.671.01.319.024.637.036.956.039.99.089 1.976.152 2.96.016.255.03.51.049.764.178 2.518.437 5.014.772 7.487.013.096.021.192.035.287h-17.204a6.617 6.617 0 01-2.721-.592zm26.421 70.054a28.97 28.97 0 01-21.995-28.153v-26.296h18.581c.044.16.098.316.142.476a114.92 114.92 0 001.579 5.163c.406 1.229.827 2.451 1.273 3.661.164.445.337.886.506 1.329a114.848 114.848 0 003.179 7.522c.231.498.459.997.698 1.492.51 1.059 1.04 2.106 1.581 3.146a111.549 111.549 0 003.527 6.305 117.424 117.424 0 002.875 4.547 119.8 119.8 0 003.097 4.436c.338.461.677.922 1.021 1.378a119.1 119.1 0 002.428 3.101c.275.34.546.682.825 1.019.558.675 1.123 1.342 1.695 2.004.136.158.276.311.413.468a116.745 116.745 0 003.251 3.571c.186.196.374.389.562.584a118.21 118.21 0 007.464 7.11c.144.125.286.252.43.376a117.932 117.932 0 006.45 5.192l.107.079c.95.709 1.896 1.422 2.868 2.103l-42.557-10.613zm13.673-50.324l-.082-.224a99.45 99.45 0 01-.779-2.207l-.048-.144a101.416 101.416 0 01-2.014-6.732c-.042-.16-.087-.319-.128-.479-.14-.546-.271-1.096-.403-1.646-.093-.388-.186-.775-.274-1.165a100.355 100.355 0 01-.568-2.674 105.596 105.596 0 01-.684-3.823c-.093-.583-.179-1.168-.262-1.753-.041-.286-.082-.572-.121-.859-.086-.648-.163-1.297-.237-1.947-.027-.239-.057-.478-.082-.718-.073-.689-.136-1.379-.196-2.069-.018-.212-.04-.423-.057-.635-.056-.707-.102-1.415-.143-2.123-.012-.202-.028-.403-.039-.606-.038-.721-.064-1.442-.088-2.163-.006-.192-.017-.382-.022-.574-.024-.908-.037-1.817-.037-2.726V174.39c11.164 1.435 22.86 1.598 34.972.515.395-.035.793-.079 1.189-.116.982-.094 1.966-.194 2.953-.305a187.1 187.1 0 002.625-.308c.247-.031.495-.065.743-.098 20.379-2.616 41.818-8.666 63.967-18.171 28.992-12.442 51.842-27.496 63.157-35.582 8.96 17.311 22.543 27.729 35.076 33.981.019.791.041 1.586.041 2.353v30.876c0 .909-.013 1.817-.037 2.726-.005.192-.016.382-.022.574a97.467 97.467 0 01-.088 2.163c-.011.203-.027.404-.039.606-.042.708-.087 1.416-.143 2.123-.017.212-.038.423-.057.635a95.81 95.81 0 01-.196 2.069c-.025.24-.055.478-.082.718-.074.65-.151 1.299-.237 1.947-.038.287-.08.573-.121.859a102.814 102.814 0 01-.436 2.802 94.407 94.407 0 01-.758 3.982c-.104.49-.209.978-.32 1.465-.088.391-.182.78-.275 1.169-.131.547-.261 1.095-.401 1.639-.043.168-.09.334-.134.502a100.904 100.904 0 01-2.002 6.689l-.058.174c-.249.732-.507 1.461-.771 2.185l-.091.25a102.332 102.332 0 01-16.039 28.434l-16.86 2.892a21.92 21.92 0 00-6.404-7.084c-4.803-3.398-10.642-4.723-16.438-3.724l-24.472 4.197c-11.967 2.052-20.033 13.457-17.981 25.424a21.956 21.956 0 0012.743 16.394c-3.5.363-7.051.552-10.645.552-14.871 0-29.01-3.191-41.772-8.919-.283-.127-.565-.257-.847-.387-24.64-11.332-44.044-32.17-53.476-57.792zm145.897 46.278a6.963 6.963 0 01-4.536 2.86l-24.476 4.197a6.981 6.981 0 01-8.087-5.721 7.014 7.014 0 015.721-8.09l24.474-4.197a6.959 6.959 0 015.229 1.184 6.959 6.959 0 012.86 4.536 6.96 6.96 0 01-1.185 5.231zM219.28 380.264a14.373 14.373 0 01-15.49-4.144l-34.82-39.739 25.825-8.052a.433.433 0 01.424.099l46.597 44.16-22.536 7.676zM256 365.342l-43.966-41.665c4.656-4.999 7.396-11.665 7.396-18.705v-5.875c.488.16.983.298 1.473.452.247.078.496.152.743.228 1.486.456 2.98.881 4.482 1.276.27.071.539.144.81.213.837.214 1.675.421 2.516.616.218.051.437.096.656.145a117.076 117.076 0 005.876 1.169c.706.121 1.412.244 2.121.352 1.067.164 2.14.311 3.216.446.564.07 1.129.132 1.694.194.91.101 1.823.19 2.739.27.385.033.768.073 1.154.103 1.285.099 2.577.17 3.872.227.365.016.731.029 1.096.042 1.368.047 2.741.08 4.121.08s2.752-.033 4.121-.08a120.459 120.459 0 004.968-.269c.385-.029.769-.07 1.154-.103.916-.08 1.829-.169 2.739-.27.565-.062 1.13-.124 1.694-.194 1.076-.135 2.149-.282 3.216-.446.709-.108 1.415-.231 2.121-.352a116.659 116.659 0 005.876-1.169c.218-.049.438-.094.656-.145.841-.195 1.68-.402 2.516-.616.271-.069.54-.142.81-.213 1.502-.395 2.995-.821 4.482-1.276.248-.076.496-.15.743-.228.49-.154.984-.291 1.473-.452v5.875c0 7.041 2.74 13.707 7.396 18.705L256 365.342zm54.447 8.225a19.429 19.429 0 01-20.94 5.603l-19.324-6.582 46.597-44.16a.43.43 0 01.425-.098l25.824 8.052-32.582 37.185z"/><path d="M190.372 468.404c7.274 0 13.192-5.917 13.192-13.192v-25.047c0-7.274-5.918-13.193-13.192-13.193h-56.55c-7.274 0-13.192 5.918-13.192 13.193v25.047c0 7.274 5.918 13.192 13.192 13.192h56.55zm-54.729-36.418h52.907v21.404h-52.907v-21.404z"/></svg><svg viewBox="0 0 38.062 2" id="title-line" xmlns="http://www.w3.org/2000/svg"><defs><style>.rcls-1{fill:#a3bbc8}</style></defs><rect id="rBG" class="rcls-1" width="38.062" height="2" rx="1" ry="1"/></svg><svg viewBox="0 0 19.738 19.738" id="user" xmlns="http://www.w3.org/2000/svg"><g fill="#010002"><path d="M18.18 19.738h-2c0-3.374-2.83-6.118-6.311-6.118s-6.31 2.745-6.31 6.118h-2c0-4.478 3.729-8.118 8.311-8.118 4.581 0 8.31 3.64 8.31 8.118zM9.87 10.97a5.492 5.492 0 01-5.484-5.485A5.49 5.49 0 019.87 0c3.025 0 5.486 2.46 5.486 5.485S12.895 10.97 9.87 10.97zm0-8.97C7.948 2 6.385 3.563 6.385 5.485S7.948 8.97 9.87 8.97c1.923 0 3.486-1.563 3.486-3.485S11.791 2 9.87 2z"/></g></svg></svg>